<svg xmlns="http://www.w3.org/2000/svg" xmlns:xlink="http://www.w3.org/1999/xlink" width="1000" zoomAndPan="magnify" viewBox="0 0 750 749.999995" height="1000" preserveAspectRatio="xMidYMid meet" version="1.0"><defs><g/><clipPath id="f3c9686c97"><rect x="0" width="151" y="0" height="397"/></clipPath><clipPath id="6185ea838a"><rect x="0" width="151" y="0" height="397"/></clipPath><clipPath id="d3190336aa"><rect x="0" width="376" y="0" height="396"/></clipPath></defs><g transform="matrix(1, 0, 0, 1, 29, 162)"><g clip-path="url(#f3c9686c97)"><g fill="#ffffff" fill-opacity="1"><g transform="translate(3.827229, 303.031118)"><g><path d="M 86.96875 76.40625 C 77.644531 76.40625 70.03125 73.453125 64.125 67.546875 C 58.226562 61.648438 55.28125 54.039062 55.28125 44.71875 L 55.28125 -51.5625 C 55.28125 -57.5625 52.484375 -60.5625 46.890625 -60.5625 L 11.1875 -60.5625 L 11.1875 -97.828125 L 46.890625 -97.828125 C 52.484375 -97.828125 55.28125 -100.832031 55.28125 -106.84375 L 55.28125 -203.125 C 55.28125 -212.4375 58.226562 -220.039062 64.125 -225.9375 C 70.03125 -231.84375 77.644531 -234.796875 86.96875 -234.796875 L 139.765625 -234.796875 L 139.765625 -201.25 L 101.5625 -201.25 C 95.96875 -201.25 93.171875 -198.144531 93.171875 -191.9375 L 93.171875 -106.84375 C 93.171875 -99.800781 90.941406 -93.898438 86.484375 -89.140625 C 82.035156 -84.378906 76.191406 -82 68.953125 -82 L 63.984375 -82 L 63.984375 -76.40625 L 68.953125 -76.40625 C 76.191406 -76.40625 82.035156 -74.019531 86.484375 -69.25 C 90.941406 -64.488281 93.171875 -58.59375 93.171875 -51.5625 L 93.171875 33.546875 C 93.171875 39.753906 95.96875 42.859375 101.5625 42.859375 L 139.765625 42.859375 L 139.765625 76.40625 Z M 86.96875 76.40625 "/></g></g></g></g></g><g transform="matrix(1, 0, 0, 1, 569, 162)"><g clip-path="url(#6185ea838a)"><g fill="#ffffff" fill-opacity="1"><g transform="translate(3.311326, 303.031118)"><g><path d="M 4.96875 76.40625 L 4.96875 42.859375 L 43.171875 42.859375 C 48.765625 42.859375 51.5625 39.753906 51.5625 33.546875 L 51.5625 -51.5625 C 51.5625 -58.59375 53.785156 -64.488281 58.234375 -69.25 C 62.679688 -74.019531 68.53125 -76.40625 75.78125 -76.40625 L 80.75 -76.40625 L 80.75 -82 L 75.78125 -82 C 68.53125 -82 62.679688 -84.378906 58.234375 -89.140625 C 53.785156 -93.898438 51.5625 -99.800781 51.5625 -106.84375 L 51.5625 -191.9375 C 51.5625 -198.144531 48.765625 -201.25 43.171875 -201.25 L 4.96875 -201.25 L 4.96875 -234.796875 L 57.765625 -234.796875 C 67.085938 -234.796875 74.695312 -231.84375 80.59375 -225.9375 C 86.5 -220.039062 89.453125 -212.4375 89.453125 -203.125 L 89.453125 -106.84375 C 89.453125 -100.832031 92.242188 -97.828125 97.828125 -97.828125 L 133.546875 -97.828125 L 133.546875 -60.5625 L 97.828125 -60.5625 C 92.242188 -60.5625 89.453125 -57.5625 89.453125 -51.5625 L 89.453125 44.71875 C 89.453125 54.039062 86.5 61.648438 80.59375 67.546875 C 74.695312 73.453125 67.085938 76.40625 57.765625 76.40625 Z M 4.96875 76.40625 "/></g></g></g></g></g><g transform="matrix(1, 0, 0, 1, 187, 188)"><g clip-path="url(#d3190336aa)"><g fill="#ffffff" fill-opacity="1"><g transform="translate(0.235498, 302.848988)"><g><path d="M 83.859375 4.34375 C 71.640625 4.34375 60.195312 1.289062 49.53125 -4.8125 C 38.875 -10.914062 30.332031 -19.867188 23.90625 -31.671875 C 17.488281 -43.472656 14.28125 -57.757812 14.28125 -74.53125 L 14.28125 -79.515625 C 14.28125 -96.285156 17.488281 -110.570312 23.90625 -122.375 C 30.332031 -134.175781 38.820312 -143.128906 49.375 -149.234375 C 59.9375 -155.335938 71.429688 -158.390625 83.859375 -158.390625 C 93.171875 -158.390625 100.984375 -157.300781 107.296875 -155.125 C 113.617188 -152.957031 118.742188 -150.21875 122.671875 -146.90625 C 126.609375 -143.59375 129.613281 -140.070312 131.6875 -136.34375 L 137.28125 -136.34375 L 137.28125 -217.40625 L 176.40625 -217.40625 L 176.40625 0 L 137.890625 0 L 137.890625 -18.640625 L 132.3125 -18.640625 C 128.789062 -12.835938 123.351562 -7.554688 116 -2.796875 C 108.644531 1.960938 97.929688 4.34375 83.859375 4.34375 Z M 95.65625 -29.8125 C 107.664062 -29.8125 117.707031 -33.691406 125.78125 -41.453125 C 133.851562 -49.222656 137.890625 -60.5625 137.890625 -75.46875 L 137.890625 -78.578125 C 137.890625 -93.484375 133.90625 -104.816406 125.9375 -112.578125 C 117.96875 -120.347656 107.875 -124.234375 95.65625 -124.234375 C 83.644531 -124.234375 73.601562 -120.347656 65.53125 -112.578125 C 57.457031 -104.816406 53.421875 -93.484375 53.421875 -78.578125 L 53.421875 -75.46875 C 53.421875 -60.5625 57.457031 -49.222656 65.53125 -41.453125 C 73.601562 -33.691406 83.644531 -29.8125 95.65625 -29.8125 Z M 95.65625 -29.8125 "/></g></g></g><g fill="#ffffff" fill-opacity="1"><g transform="translate(198.355165, 302.848988)"><g><path d="M 21.734375 0 L 21.734375 -217.40625 L 60.875 -217.40625 L 60.875 -97.21875 L 66.46875 -97.21875 L 117.40625 -154.046875 L 168.328125 -154.046875 L 97.21875 -79.515625 L 170.8125 0 L 120.5 0 L 66.46875 -61.1875 L 60.875 -61.1875 L 60.875 0 Z M 21.734375 0 "/></g></g></g></g></g></svg>